<svg width="70" height="73" viewBox="0 0 70 73" fill="none" xmlns="http://www.w3.org/2000/svg">
<path d="M0.908194 38H9.40248V12.6432H0.908194V38ZM0 4.83894C0 7.581 2.35062 9.73164 5.12862 9.73164C7.96005 9.73164 10.2038 7.581 10.2038 4.83894C10.2038 2.09687 7.96005 0 5.12862 0C2.35062 0 0 2.09687 0 4.83894Z" fill="#5920BC"/>
<path d="M14.3 19.8921H22.5L14.3 31.5688V37.6982H33V30.5556H24.5L33 18.7855V12.6432H14.3V19.8921Z" fill="#5920BC"/>
<path d="M60.7031 38H69.1985V12.6432H60.7031V38ZM59.7948 4.83894C59.7948 7.581 62.1458 9.73164 64.9241 9.73164C67.7559 9.73164 70 7.581 70 4.83894C70 2.09687 67.7559 0 64.9241 0C62.1458 0 59.7948 2.09687 59.7948 4.83894Z" fill="#5920BC"/>
<path d="M37 19.8921H45.2011L37 31.5688V37.6981H55.7025V30.5556H47.2014L55.7025 18.7855V12.6432H37V19.8921Z" fill="#5920BC"/>
<path d="M58.3718 51.3636C51.7514 56.1958 43.7599 58.7855 35.5637 58.7548C27.3675 58.724 19.3956 56.0744 12.8117 51.1927L18.0217 44.166C23.1075 47.9369 29.2653 49.9836 35.5965 50.0074C41.9277 50.0311 48.1007 48.0307 53.2146 44.2981L58.3718 51.3636Z" fill="#5920BC"/>
</svg>
