<svg width="14" height="16" viewBox="0 0 14 16" fill="none" xmlns="http://www.w3.org/2000/svg">
<path d="M11.6667 7.29993H2.33333C1.59695 7.29993 1 7.92673 1 8.69993V13.5999C1 14.3731 1.59695 14.9999 2.33333 14.9999H11.6667C12.403 14.9999 13 14.3731 13 13.5999V8.69993C13 7.92673 12.403 7.29993 11.6667 7.29993Z" stroke="white" stroke-linecap="round" stroke-linejoin="round"/>
<path d="M3.66669 7.3V4.5C3.66669 3.57174 4.01788 2.6815 4.643 2.02513C5.26812 1.36875 6.11597 1 7.00002 1C7.88408 1 8.73192 1.36875 9.35704 2.02513C9.98216 2.6815 10.3334 3.57174 10.3334 4.5V7.3" stroke="white" stroke-linecap="round" stroke-linejoin="round"/>
</svg>
